<svg id="Layer_1" data-name="Layer 1" xmlns="http://www.w3.org/2000/svg" width="183.42mm" height="112.2mm" viewBox="0 0 519.92 318.05">
  <title>ColdFridayLogo</title>
  <g id="ColdFridayLogo">
    <path d="M425.39,466.26a16.35,16.35,0,0,0,1.44-2c5.5-13.14,5.5-13.16,19.62-13.13,4.83,0,9.67,0,14.48.34,2.1.14,4.53.53,6.13,1.73,2.52,1.87,4.14,1.49,6.52-.18a11.72,11.72,0,0,1,6.15-1.57c7.16-.2,14.48-1,21.46.1,8.95,1.42,17.59-1.1,26.41-.41,4,.31,7.67.39,10,4.17,2.5,4,2.11,7.56-.44,11.59-3.82,6-6.68,12.7-10.53,18.72-3.66,5.7-4.34,11.64-3.76,18.11.89,9.82-2.93,13.88-12.77,14-4,0-8-.09-12,0-4.4.15-8.78.47-11-4.34-12.16,6.69-30.87,5.74-36.77-1-4.37,1.84-8.34,4.23-12.61,5.09a44.89,44.89,0,0,1-13.45.15c-4.11-.44-9.54,2.85-11.91-3.48-20.27,6.21-41.06,2.58-61.56,3.45-11.93.51-23.93-.88-35.9-.94-8.46-.05-16.91.89-25.37,1-9.15.15-8.07,1.09-8.16-8.35,0-2-.07-4,0-6,.1-2.77-.68-4.36-3.94-4.29s-4.63,1.33-4.33,4.51c0,.33,0,.67,0,1-.23,14.36-1.64,15.76-15.81,15.76-4.34,0-8.71-.38-13,.1-5.29.59-8.13-1.73-9.73-6.39-.36-1.06-.91-2.06-1.51-3.4a24.33,24.33,0,0,1-3.27,1.45c-6.66,1.84-13.28,4.93-20,5.18-20.3.76-40.65.32-61,.55-5.5.06-10.84.44-13.2-6.15-17.4,9.22-33.93,10.46-50-3.08-9.93,11.2-22.76,14.56-37.3,12.33-8.59-1.32-15.74-5.21-21.06-12.23-11.49-15.17-10.08-41.78,2.7-53.53,11.65-10.71,41.81-16.08,57.15,3.54,6.69-6.25,15.34-7.69,23.9-8.52a33.13,33.13,0,0,1,24.27,7c9.36-10.47,21-5.54,31.67-4.8,4,.27,6.23,4.73,6.07,9.23-.25,6.64-.64,13.28-.92,19.92-.1,2.45.07,5.28,3.45,4.45,1.28-.31,2.78-2.91,2.83-4.51.28-8.49.16-17,.12-25.49,0-2.32,0-4.3,3.25-4.3,10.66,0,21.35-.69,32,0,6.3.4,12.48,2.88,19.27,4.56,1.28-10.58,9.91-9.53,18-9.54,10.33,0,20.66-.09,31,0,1.81,0,4.21-.15,5.31.87,7.29,6.83,16.13,3,24.25,3.94,7.2.85,14.38,1.87,21.57,2.77a10.5,10.5,0,0,0,3.31-.1c3.44-.74,6.84-2.22,10.29-2.32,14.82-.41,29.65-.43,44.47-.62C404.65,450.89,416.94,453.73,425.39,466.26ZM72.54,477.08c1.83,0,3.66,0,5.49,0,5.27-.09,6.19-1,5.41-6.23-1.15-7.72-5.21-13.73-12.77-15.73A55.69,55.69,0,0,0,52,453.36c-12.95,1.08-22.34,9-24.62,20a41.79,41.79,0,0,0,2.74,25.9C34.26,508.53,42,513,51.81,513.67c11.22.78,21.82-.73,28.65-11.18,1.59-2.44,2.36-5.45,3.29-8.28,1-3.17-.19-4.7-3.61-4.63-4.83.09-9.66.15-14.48,0-3.19-.12-5.44.58-6.43,4-.3,1.05-1.87,2.61-2.59,2.48-1.21-.23-3.13-1.61-3.14-2.52-.08-6.89.1-13.79.57-20.66.06-.94,2.12-2.38,3.28-2.41.95,0,2.5,1.57,2.8,2.71.85,3.27,2.84,4.17,5.9,3.95C68.2,477,70.37,477.08,72.54,477.08Zm238.37,16.5,1.78-.61a17.63,17.63,0,0,1,2,3.74,44.13,44.13,0,0,1,.93,6.42c.47,4.47,2.36,7,7.41,6.54a113.94,113.94,0,0,1,12-.07c3.65.06,4.84-1.72,3.92-5.06-2-7.21-4-14.41-6.27-22.33,4.48-4.79,6.29-10.14,4-15-2.87-6.06-8.63-7.31-14.57-8a4.1,4.1,0,0,0-.5,0c-9.65,0-19.31.05-29,0-2.92,0-4.22,1-4.2,4q.13,21.22,0,42.46c0,2.93,1,4.26,4.09,4.17,4.66-.14,9.33-.16,14,0,3.19.12,4.58-1,4.44-4.31C310.79,501.51,310.91,497.54,310.91,493.58Zm59.2-9.19c0,7,.11,14-.05,21-.06,3.25,1.18,4.45,4.4,4.39,7.82-.13,15.66.17,23.48-.11,12.27-.42,21.75-10,23-22.81,1.43-15.16-4.66-25.47-18.22-27.55-9.4-1.45-19.18-.38-28.79-.39-3,0-3.9,1.64-3.84,4.51C370.21,470.4,370.11,477.4,370.11,484.39Zm-184.69-.48c0,7.17.09,14.33,0,21.5-.06,3.24,1.2,4.42,4.43,4.36,7.82-.15,15.67.16,23.49-.11,11.88-.42,21.72-9.93,23-21.83,1.63-15.54-4.33-26.28-17.78-28.42-9.71-1.54-19.84-.41-29.79-.43-3,0-3.34,2-3.32,4.44C185.46,470.25,185.42,477.08,185.42,483.91ZM111,510.73c17.46,0,27.61-9.64,27.18-26.7-.39-15.36-8.93-27.78-25-26.84-19.46,1.14-28,7.24-28.57,27C84.15,500.5,94.74,510.77,111,510.73Zm129.7-28.32V499.9c0,15.67-.39,12.67,12.8,12.82,12.72.14,12.78,0,12.54-12.7-.16-9-.07-7.63,7.23-8,12.5-.67,12.41-.71,11.68-13.29-.19-3.21-1.49-4.49-4.59-4.4-3.5.11-7,.22-10.49,0-1.26-.06-2.48-1-3.72-1.46a18.67,18.67,0,0,1,3.87-1.83,23.85,23.85,0,0,1,4.48-.08c13.6-.37,11.65,2.61,11.83-12.43,0-3.13-1.26-4.56-4.46-4.54q-18.24.09-36.47,0c-3.32,0-4.79,1.46-4.73,4.88C240.78,466.75,240.69,474.58,240.68,482.41Zm227.67,27.27c2.5,0,5-.06,7.49,0,3.19.1,4.33-1.45,3.38-4.35-4.76-14.53-9.49-29.07-14.56-43.48-.57-1.63-3.19-3.46-5-3.58a192.19,192.19,0,0,0-19.94-.08c-1.48.06-3.8,1.28-4.2,2.48-5.06,15.14-9.87,30.37-14.6,45.62-.27.88.7,3.09,1.11,3.09,6.12.07,12.25,0,18.35-.42.94-.07,2.22-2.08,2.5-3.37,1-4.36,4.33-2.73,6.84-2.92s5.58-.71,6.24,3.11c.58,3.41,2.91,4.06,5.88,3.91C464,509.61,466.19,509.69,468.35,509.68Zm37.18-34.84c-1-2-1.4-2.7-1.69-3.42-1.61-3.95-2.14-9.43-5.06-11.45s-8.33-.92-12.63-.81a80.62,80.62,0,0,0-9.08,1.19c1.2,3.2,2,6.67,3.68,9.56,6.63,11.2,13.6,22.19,12,36.12-.4,3.41,1.41,4.8,4.77,4.7,4-.12,8,0,12,0,6.18,0,7.09-.86,6.34-7-.92-7.51,0-14.33,4.37-20.86,4-6.08,7.17-12.76,10.72-19.17,1.91-3.45.74-5-3-4.94-4.32.09-8.65.38-13,.29-3.06-.07-4.51,1.36-5.36,4.09C508.49,466.61,507.21,470,505.53,474.84Zm-363,9.45h-.25c0,7,0,14,0,20.95,0,2.35.23,4.45,3.31,4.45,11.31,0,22.62.11,33.92-.23,1.19,0,3.41-2.94,3.25-4.29-.5-4.13,2.67-9-2.12-12.31-.7-.48-1.94-.2-2.94-.21-2.83,0-5.66-.14-8.48,0s-4.3-.85-4.15-4c.4-8.28.51-16.56,1-24.83.24-4-1-6-5.24-5.81s-8.66.19-13,0c-4-.21-5.39,1.6-5.35,5.31C142.62,470.32,142.57,477.3,142.57,484.29Zm221.2-.08c0-7-.08-14,0-21,.05-2.91-.88-4.28-4-4.18-5,.16-10,.13-15,0-3.31-.08-4.33,1.49-4.32,4.57.06,14,0,28-.06,41.94,0,2.89,1.07,4.26,4.13,4.18,4.82-.14,9.65-.18,14.47,0,3.42.14,4.82-1.11,4.74-4.6C363.66,498.19,363.77,491.2,363.77,484.21Z" transform="translate(-19.41 -203.43)"/>
    <path d="M194.9,312.86c-10.76-4.51-20.59-8.88-30.64-12.69-2.76-1-6.15-.6-9.24-.49-2,.07-3.88.94-5.86,1.19-7,.86-32.91-8.7-37.67-13.93a30,30,0,0,1-3.29-4.38c-4.45-7.24-2.68-14.17,5.37-17,6.21-2.17,9-5.94,10.36-12,2-9.16,8.9-14.76,16.28-19.4,6.13-3.87,9.87-8,9.22-16-.55-6.7,5.51-10.57,10.61-6.6,12.53,9.75,26,6.62,39.25,4,22-4.29,44-7.06,66.45-3.86,18.3,2.61,36.12-1.07,53.85-5.37C342,201,363.91,203.2,385.4,211c20.34,7.41,33.86,21.49,41.8,41.61,9.47,24,12.06,48.27,6,73.44-.66,2.77-.26,5.91.19,8.79,1.86,12.15,3.87,24.28,5.95,36.39.92,5.41,2.22,10.75,3.17,16.16.54,3.14,2.12,4,5.2,3.64,17.71-2,35.43-3.79,53.15-5.65a12.71,12.71,0,0,1,6.32.55,38.64,38.64,0,0,1-4.47,1.53c-25,5.48-50,11.59-75.17,16.21-34,6.23-68.41,8.25-102.9,9.07a1219.63,1219.63,0,0,1-141.27-4.34c-44.08-4.07-88-9.84-132-14.88a4,4,0,0,1-2.67-1.45c5.2.39,10.39.83,15.59,1.16q45.87,2.85,91.74,5.69c2.81.17,4.87-.25,6.57-3.14,3.17-5.37,8.72-7.67,14.58-8.67,4-.69,5.27-2.29,4.63-6.33a91.83,91.83,0,0,1,7.86-55C191.82,321.37,193.38,316.68,194.9,312.86Zm241.49,79.78c-1.33-6.77-2.49-12.1-3.41-17.47q-3.54-20.64-6.84-41.32a18.07,18.07,0,0,1,0-7.29c7.5-27.94,3.28-54.39-9.43-80-4.92-9.91-11.85-17.75-21.56-22.88-24.68-13-50.56-17.13-77.81-9.65-19,5.22-38.1,7.44-57.8,4.53-17.8-2.63-35.44-.7-53.06,3.06a160.19,160.19,0,0,1-31.15,3.17c-4.75.07-9.56-3-14.31-4.72a56.39,56.39,0,0,1-5.4-2.86c3.14,12.14-3,18-11.26,22.66-1.15.65-2.18,1.52-3.27,2.29-5.46,3.88-9.65,8.66-11,15.47s-5.19,11.38-11.93,13.42a16.69,16.69,0,0,0-2.69,1.31c-3,1.56-3.65,3.77-1.55,6.49,3.07,4,6.4,7.44,11.72,8.72,5.13,1.23,10,3.62,15.1,5,3.08.82,6.77,1.64,9.6.69,7.4-2.47,13.94-1.28,20.72,2a127.29,127.29,0,0,0,19.37,7.8c9.33,2.71,9.72,2.09,9.38-7.58,0-.18.43-.37,1.41-1.14.63,3.59,2.1,6.93,1.56,9.91-1.4,7.77-2.53,15.93-5.84,22.95a92.6,92.6,0,0,0-8,53.54c1.27,9.27.06,10.77-9.14,13.12-3.29.84-6.39,2.44-10.23,3.95,1.41,1.15,1.65,1.53,1.91,1.53,16.47.42,32.94.91,49.41,1.14,3.81,0,5.69-2.77,5.65-6.35a58,58,0,0,0-1.15-9.89c-1.69-9.06-1.46-18.05,2-26.55,3.19-7.78,10.93-13.57,9.86-23.47,2.1,15.1,7.9,28.45,14.59,41.56,6.2,12.18,4.69,16.65-8.81,19-3.06.53-5.87,2.5-8.79,3.81l.58,1.6a25.14,25.14,0,0,0,3.31.41q22-.18,44-.42c6.88-.06,8.44-1.92,7.7-8.74-.92-8.6-1.91-17.21-2.46-25.83-.56-8.81-.81-17.64-.82-26.46,0-5.75,2.3-7.18,7.49-5.68,5,1.44,9.91,2.94,14.94,4,9.57,2,19.19,3.81,28.26,5.59,0,7.07-.36,13.7.11,20.26.36,5.12,1.78,10.16,2.65,15.25.79,4.56-1.09,7.39-5.69,8.34a82.5,82.5,0,0,0-8.77,2c-4.76,1.56-8.31,4.45-9.74,11.07Zm-139.66,7.18a59.12,59.12,0,0,0,8.56-.13,4.9,4.9,0,0,0,3.42-2.64c3-10.08,10.2-14.81,20.11-16,3.33-.41,4.16-1.82,3.59-5-1.07-5.88-2.23-11.78-2.72-17.73-.81-9.62-.62-9.53-10.34-11.47-8.42-1.67-16.78-3.62-26.66-5.77C294.05,360.9,295.37,380,296.73,399.82Zm-60.83-41.4c-5.67,5.14-6.24,21.63-1.1,31.4,3.49-1,7.08-1.8,10.45-3.13,1-.4,2.3-2.68,2-3.46C243.63,374.93,239.76,366.77,235.9,358.42Z" transform="translate(-19.41 -203.43)"/>
    <path d="M72.54,477.08c-2.17,0-4.34-.12-6.49,0-3.06.22-5-.68-5.9-3.95-.3-1.14-1.85-2.73-2.8-2.71-1.16,0-3.22,1.47-3.28,2.41-.47,6.87-.65,13.77-.57,20.66,0,.91,1.93,2.29,3.14,2.52.72.13,2.29-1.43,2.59-2.48,1-3.44,3.24-4.14,6.43-4,4.82.19,9.65.13,14.48,0,3.42-.07,4.66,1.46,3.61,4.63-.93,2.83-1.7,5.84-3.29,8.28-6.83,10.45-17.43,12-28.65,11.18-9.83-.7-17.55-5.14-21.68-14.44a41.79,41.79,0,0,1-2.74-25.9c2.28-10.93,11.67-18.89,24.62-20a55.69,55.69,0,0,1,18.66,1.75c7.56,2,11.62,8,12.77,15.73.78,5.19-.14,6.14-5.41,6.23C76.2,477.11,74.37,477.08,72.54,477.08Z" transform="translate(-19.41 -203.43)" style="fill: #fff"/>
    <path d="M310.91,493.58c0,4-.12,7.93,0,11.88.14,3.28-1.25,4.43-4.44,4.31-4.66-.17-9.33-.15-14,0-3,.09-4.1-1.24-4.09-4.17q.1-21.22,0-42.46c0-3.07,1.28-4.06,4.2-4,9.65.09,19.31,0,29,0a4.1,4.1,0,0,1,.5,0c5.94.72,11.7,2,14.57,8,2.31,4.88.5,10.23-4,15,2.23,7.92,4.29,15.12,6.27,22.33.92,3.34-.27,5.12-3.92,5.06a113.94,113.94,0,0,0-12,.07c-5.05.47-6.94-2.07-7.41-6.54a44.13,44.13,0,0,0-.93-6.42,17.63,17.63,0,0,0-2-3.74Z" transform="translate(-19.41 -203.43)" style="fill: #fff"/>
    <path d="M370.11,484.39c0-7,.1-14-.05-21-.06-2.87.87-4.52,3.84-4.51,9.61,0,19.39-1.06,28.79.39,13.56,2.08,19.65,12.39,18.22,27.55-1.22,12.8-10.7,22.39-23,22.81-7.82.28-15.66,0-23.48.11-3.22.06-4.46-1.14-4.4-4.39C370.22,498.38,370.11,491.39,370.11,484.39Zm20.77,13.22c6.21-.77,8.15-4.35,8.2-8.72.09-6.17,2.62-13.05-3.83-17.87-.25-.19-.72-.42-.91-.31-1.18.66-3.29,1.38-3.31,2.13C390.79,480.89,390.88,489,390.88,497.61Z" transform="translate(-19.41 -203.43)" style="fill: #fff"/>
    <path d="M185.42,483.91c0-6.83,0-13.66,0-20.49,0-2.42.32-4.45,3.32-4.44,9.95,0,20.08-1.11,29.79.43,13.45,2.14,19.41,12.88,17.78,28.42-1.26,11.9-11.1,21.41-23,21.83-7.82.27-15.67,0-23.49.11-3.23.06-4.49-1.12-4.43-4.36C185.51,498.24,185.42,491.08,185.42,483.91ZM206,498.66c2.93-1.7,4.89-2.33,6.11-3.64,3.5-3.75,3.9-17.68.76-21.88-.75-1-2-2.26-3-2.24-1.29,0-3.64,1.2-3.67,1.94C205.92,480.91,206,489,206,498.66Z" transform="translate(-19.41 -203.43)" style="fill: #fff"/>
    <path d="M111,510.73c-16.24,0-26.83-10.23-26.36-26.57.58-19.73,9.11-25.83,28.57-27,16-.94,24.58,11.48,25,26.84C138.59,501.09,128.44,510.7,111,510.73ZM106.56,484a88.07,88.07,0,0,0,1.67,9.38c.33,1.17,2,2.8,3,2.74,1.34-.08,3.66-1.51,3.71-2.46a183.56,183.56,0,0,0,0-18.62c0-1-2.16-2.66-3.14-2.53a5.08,5.08,0,0,0-3.57,2.77C107.27,478.05,107.07,481.08,106.56,484Z" transform="translate(-19.41 -203.43)" style="fill: #fff"/>
    <path d="M240.69,482.41c0-7.83.09-15.66,0-23.49-.06-3.42,1.41-4.88,4.73-4.88q18.22,0,36.47,0c3.2,0,4.5,1.41,4.46,4.54-.18,15,1.77,12.06-11.83,12.43a23.85,23.85,0,0,0-4.48.08,18.67,18.67,0,0,0-3.87,1.83c1.24.51,2.46,1.4,3.72,1.46,3.49.18,7,.07,10.49,0,3.1-.09,4.4,1.19,4.59,4.4.73,12.58.82,12.62-11.68,13.29-7.3.39-7.39-.95-7.23,8,.24,12.7.18,12.84-12.54,12.7-13.19-.15-12.8,2.85-12.8-12.82Q240.68,491.16,240.69,482.41Z" transform="translate(-19.41 -203.43)" style="fill: #fff"/>
    <path d="M468.35,509.69c-2.16,0-4.33-.08-6.48,0-3,.15-5.3-.5-5.88-3.91-.66-3.82-3.67-3.3-6.24-3.11s-5.87-1.44-6.84,2.92c-.28,1.29-1.56,3.3-2.5,3.37-6.1.43-12.23.49-18.35.42-.41,0-1.38-2.21-1.11-3.09,4.73-15.25,9.54-30.48,14.6-45.62.4-1.2,2.72-2.42,4.2-2.48a192.19,192.19,0,0,1,19.94.08c1.78.12,4.4,1.95,5,3.58,5.07,14.41,9.8,28.95,14.56,43.48.95,2.9-.19,4.45-3.38,4.35C473.34,509.62,470.85,509.68,468.35,509.69Zm-22.59-21.54h7.69L450.23,474l-1.31.15C447.92,478.56,446.92,483,445.76,488.15Z" transform="translate(-19.41 -203.43)" style="fill: #fff"/>
    <path d="M505.53,474.84c1.68-4.82,3-8.23,4-11.7.85-2.73,2.3-4.16,5.36-4.09,4.32.09,8.65-.2,13-.29,3.77-.07,4.94,1.49,3,4.94-3.55,6.41-6.68,13.09-10.72,19.17-4.35,6.53-5.29,13.35-4.37,20.86.75,6.12-.16,6.94-6.34,7-4,0-8-.1-12,0-3.36.1-5.17-1.29-4.77-4.7,1.62-13.93-5.35-24.92-12-36.12-1.72-2.89-2.48-6.36-3.68-9.56a80.62,80.62,0,0,1,9.08-1.19c4.3-.11,9.64-1.25,12.63.81s3.45,7.5,5.06,11.45C504.13,472.14,504.52,472.82,505.53,474.84Z" transform="translate(-19.41 -203.43)" style="fill: #fff"/>
    <path d="M142.57,484.29c0-7,.05-14,0-21,0-3.71,1.39-5.52,5.35-5.31,4.31.23,8.65.2,13,0s5.48,1.8,5.24,5.81c-.5,8.27-.61,16.55-1,24.83-.15,3.11,1.22,4.12,4.15,4s5.65,0,8.48,0c1,0,2.24-.27,2.94.21,4.79,3.27,1.62,8.18,2.12,12.31.16,1.35-2.06,4.26-3.25,4.29-11.3.34-22.61.22-33.92.23-3.08,0-3.32-2.1-3.31-4.45,0-7,0-14,0-20.95Z" transform="translate(-19.41 -203.43)" style="fill: #fff"/>
    <path d="M363.77,484.21c0,7-.11,14,0,21,.08,3.49-1.32,4.74-4.74,4.6-4.82-.19-9.65-.15-14.47,0-3.06.08-4.14-1.29-4.13-4.18.07-14,.12-28,.06-41.94,0-3.08,1-4.65,4.32-4.57,5,.12,10,.15,15,0,3.11-.1,4,1.27,4,4.18C363.69,470.23,363.77,477.22,363.77,484.21Z" transform="translate(-19.41 -203.43)" style="fill: #fff"/>
    <path d="M436.39,392.64,315.8,400c1.43-6.62,5-9.51,9.74-11.07a82.5,82.5,0,0,1,8.77-2c4.6-.95,6.48-3.78,5.69-8.34-.87-5.09-2.29-10.13-2.65-15.25-.47-6.56-.11-13.19-.11-20.26-9.07-1.78-18.69-3.55-28.26-5.59-5-1.08-10-2.58-14.94-4-5.19-1.5-7.49-.07-7.49,5.68,0,8.82.26,17.65.82,26.46.55,8.62,1.54,17.23,2.46,25.83.74,6.82-.82,8.68-7.7,8.74q-22,.21-44,.42a25.14,25.14,0,0,1-3.31-.41l-.58-1.6c2.92-1.31,5.73-3.28,8.79-3.81,13.5-2.35,15-6.82,8.81-19-6.69-13.11-12.49-26.46-14.59-41.56,1.07,9.9-6.67,15.69-9.86,23.47-3.49,8.5-3.72,17.49-2,26.55a58,58,0,0,1,1.15,9.89c0,3.58-1.84,6.4-5.65,6.35-16.47-.23-32.94-.72-49.41-1.14-.26,0-.5-.38-1.91-1.53,3.84-1.51,6.94-3.11,10.23-3.95,9.2-2.35,10.41-3.85,9.14-13.12a92.6,92.6,0,0,1,8-53.54c3.31-7,4.44-15.18,5.84-22.95.54-3-.93-6.32-1.56-9.91-1,.77-1.42,1-1.41,1.14.34,9.67-.05,10.29-9.38,7.58a127.29,127.29,0,0,1-19.37-7.8c-6.78-3.25-13.32-4.44-20.72-2-2.83,1-6.52.13-9.6-.69-5.12-1.36-10-3.75-15.1-5-5.32-1.28-8.65-4.72-11.72-8.72-2.1-2.72-1.48-4.93,1.55-6.49a16.69,16.69,0,0,1,2.69-1.31c6.74-2,10.56-6.66,11.93-13.42s5.58-11.59,11-15.47c1.09-.77,2.12-1.64,3.27-2.29,8.26-4.66,14.4-10.52,11.26-22.66a56.39,56.39,0,0,0,5.4,2.86c4.75,1.74,9.56,4.79,14.31,4.72a160.19,160.19,0,0,0,31.15-3.17c17.62-3.76,35.26-5.69,53.06-3.06,19.7,2.91,38.81.69,57.8-4.53,27.25-7.48,53.13-3.37,77.81,9.65,9.71,5.13,16.64,13,21.56,22.88,12.71,25.57,16.93,52,9.43,80a18.07,18.07,0,0,0,0,7.29q3.27,20.68,6.84,41.32C433.9,380.54,435.06,385.87,436.39,392.64Zm-46.18-43.19-1.89.14c-7.21,7.85-13.62,16.18-11.3,27.93,2.9,14.7,1.33,12,15.13,9.62,4-.69,6.38-3.73,5.55-7.58C395.53,369.46,392.75,359.48,390.21,349.45Z" transform="translate(-19.41 -203.43)" style="fill: #fff"/>
    <path d="M296.73,399.82c-1.36-19.81-2.68-38.92-4-58.7,9.88,2.15,18.24,4.1,26.66,5.77,9.72,1.94,9.53,1.85,10.34,11.47.49,5.95,1.65,11.85,2.72,17.73.57,3.13-.26,4.54-3.59,5-9.91,1.2-17.1,5.93-20.11,16a4.9,4.9,0,0,1-3.42,2.64A59.12,59.12,0,0,1,296.73,399.82Z" transform="translate(-19.41 -203.43)" style="fill: #fff"/>
    <path d="M235.9,358.42c3.86,8.35,7.73,16.51,11.31,24.81.34.78-1,3.06-2,3.46-3.37,1.33-7,2.13-10.45,3.13C229.66,380.05,230.23,363.56,235.9,358.42Z" transform="translate(-19.41 -203.43)" style="fill: #fff"/>
    <path d="M390.88,497.61c0-8.66-.09-16.72.15-24.77,0-.75,2.13-1.47,3.31-2.13.19-.11.66.12.91.31,6.45,4.82,3.92,11.7,3.83,17.87C399,493.26,397.09,496.84,390.88,497.61Z" transform="translate(-19.41 -203.43)"/>
    <path d="M206,498.66c0-9.68-.1-17.75.16-25.82,0-.74,2.38-1.91,3.67-1.94,1,0,2.29,1.24,3,2.24,3.14,4.2,2.74,18.13-.76,21.88C210.91,496.33,209,497,206,498.66Z" transform="translate(-19.41 -203.43)"/>
    <path d="M106.56,484c.51-2.92.71-5.95,1.65-8.72a5.08,5.08,0,0,1,3.57-2.77c1-.13,3.1,1.57,3.14,2.53a183.56,183.56,0,0,1,0,18.62c0,.95-2.37,2.38-3.71,2.46-1,.06-2.64-1.57-3-2.74A88.07,88.07,0,0,1,106.56,484Z" transform="translate(-19.41 -203.43)"/>
    <path d="M445.76,488.15c1.16-5.17,2.16-9.59,3.16-14l1.31-.15,3.22,14.16Z" transform="translate(-19.41 -203.43)"/>
    <path d="M390.21,349.45c2.54,10,5.32,20,7.49,30.11.83,3.85-1.53,6.89-5.55,7.58-13.8,2.39-12.23,5.08-15.13-9.62-2.32-11.75,4.09-20.08,11.3-27.93ZM387,363.83c-4,4.67-4.85,12.33-2.41,15.83a3.52,3.52,0,0,0,3.24,1c1-.45,2.36-2.08,2.22-3C389.37,373.38,388.23,369.12,387,363.83Z" transform="translate(-19.41 -203.43)"/>
    <path d="M387,363.83c1.22,5.29,2.36,9.55,3.05,13.88.14.91-1.19,2.54-2.22,3a3.52,3.52,0,0,1-3.24-1C382.16,376.16,383.05,368.5,387,363.83Z" transform="translate(-19.41 -203.43)" style="fill: #fff"/>
    <path d="M309.86,480.3c0-4.09-.06-7.89.17-11.69,0-.35,1.93-.69,3-1a1.84,1.84,0,0,1,.82.15c5.83,2.3,3.52,5.53,3.44,8.45C317.23,478.27,315.48,480,309.86,480.3Z" transform="translate(-19.41 -203.43)"/>
  </g>
</svg>
